# xmcd CD database file
#
# Track frame offsets:
#	150
#	22148
#	43589
#	65734
#	82818
#	104269
#	122595
#	140023
#	168617
#	187590
#	202587
#	215698
#	237059
#	256655
#	269701
#	304260
#	317049
#	330435
#	346769
#
# Disc length: 4741 seconds
#
# Revision: 0
# Processed by: cddbd v1.5.2PL0 Copyright (c) Steve Scherf et al.
# Submitted via: CDex 1.51
#
DISCID=0a128313
DTITLE=Herb Ellis - Herb Ellis Four Classic Albums CD2
DYEAR=1900
DGENRE=Jazz
TTITLE0=People Will Say We're In Love ( Herb Ellis Meets Jimmy Giuffre - 1959 )
TTITLE1=Sweatheart Blues ( Ellis In Wonderland - 1955 )
TTITLE2=Somebody Loves Me
TTITLE3=It Could Happen To You
TTITLE4=Pogo
TTITLE5=Detour Ahead
TTITLE6=Ellis In Wonderland
TTITLE7=Have You Met Miss Jones
TTITLE8=A Simple Tune
TTITLE9=Pickley Wickley ( Thank You, Charlie Christian - 1960 )
TTITLE10=I Told You I loved You, Now Get out
TTITLE11=Cook One
TTITLE12=Karin
TTITLE13=Cherry Kijafa
TTITLE14=Thank You, Charlie Christian
TTITLE15=Alexander's Ragtime Band
TTITLE16=Lemon Twist
TTITLE17=Everything's Pat
TTITLE18=Workin' With The Truth
EXTD=
EXTT0=
EXTT1=
EXTT2=
EXTT3=
EXTT4=
EXTT5=
EXTT6=
EXTT7=
EXTT8=
EXTT9=
EXTT10=
EXTT11=
EXTT12=
EXTT13=
EXTT14=
EXTT15=
EXTT16=
EXTT17=
EXTT18=
PLAYORDER=
